<?xml version="1.0" encoding="UTF-8"?><svg id="Front_Text" xmlns="http://www.w3.org/2000/svg" viewBox="0 0 85 85"><defs><style>.cls-1{fill:#1d1d1b;}.cls-2{fill:none;stroke:#1d1d1b;stroke-miterlimit:10;}</style></defs><path class="cls-2" d="M51.2,56.7c0,.9.2,1.6.6,2.2.4.6.8,1.1,1.2,1.6.5.5,1.1.9,1.8,1.2v.3h-10v-.3c0,0,.3-.1.7-.3.4-.2.8-.5,1.2-.9.4-.4.8-.9,1.2-1.5.3-.6.5-1.4.5-2.2V22.2l-29.6,34.6c0,.9.2,1.6.6,2.2.4.6.8,1.1,1.2,1.6.5.5,1.1.9,1.8,1.2v.3h-10v-.3c0,0,.3-.1.7-.3.4-.2.8-.5,1.2-.9.4-.4.8-.9,1.2-1.5.3-.6.5-1.4.5-2.2V20.2c0-.9-.2-1.6-.5-2.2-.3-.6-.7-1.1-1.2-1.5-.4-.4-.9-.7-1.2-.9-.4-.2-.6-.3-.7-.3v-.3h10v.3c-.7.3-1.3.7-1.8,1.2-.4.4-.9.9-1.2,1.5-.4.6-.6,1.4-.6,2.2v34.6l29.6-34.6c0-.9-.2-1.6-.5-2.2-.3-.6-.7-1.1-1.2-1.5-.4-.4-.9-.7-1.2-.9-.4-.2-.6-.3-.7-.3v-.3h10v.3c-.7.3-1.3.7-1.8,1.2-.4.4-.9.9-1.2,1.5-.4.6-.6,1.4-.6,2.2v36.5Z"/><path class="cls-2" d="M37.7,59.5c0,3.1.5,6,1.4,8.7.9,2.8,2.2,5.2,3.8,7.3,1.6,2.1,3.5,3.8,5.7,5,2.2,1.2,4.5,1.9,6.9,1.9,3.6,0,6.7-.7,9.3-2.2,2.5-1.5,4.7-3.8,6.5-6.9l.9.5c-.8,1.4-1.7,2.7-2.8,3.9-1.1,1.2-2.3,2.3-3.6,3.2-1.3.9-2.9,1.6-4.5,2.1-1.7.5-3.6.8-5.7.8-3.3,0-6.3-.6-8.8-1.9-2.6-1.2-4.7-2.9-6.4-5.1-1.7-2.2-3-4.7-3.9-7.7-.9-3-1.3-6.2-1.3-9.7s.5-6.7,1.6-9.7c1.1-3,2.6-5.5,4.5-7.7,1.9-2.2,4.2-3.8,6.8-5,2.6-1.2,5.5-1.8,8.6-1.8s3.2.2,4.5.6c1.3.4,2.4.9,3.4,1.4,1,.6,1.8,1.1,2.5,1.8.7.6,1.4,1.1,2,1.5.3.2.6.3.8.3.4,0,.8-.3,1-.8.2-.6.3-1.2.3-2h.3v11h-.3c-.4-1.8-1.1-3.4-2-4.8-.9-1.5-2.1-2.8-3.4-3.8-1.3-1.1-2.9-1.9-4.5-2.5-1.7-.6-3.4-.9-5.3-.9-2.8,0-5.3.6-7.5,1.8-2.2,1.2-4.2,2.9-5.7,4.9-1.6,2.1-2.8,4.5-3.6,7.2-.9,2.7-1.3,5.6-1.3,8.7Z"/><path class="cls-1" d="M63.7,18.2l-.7-2.9c-.6-2.5-2.6-4.5-5.1-5.2l-3-.7,3.1-.8c2.5-.6,4.4-2.6,5-5.1l.7-2.9.7,2.9c.6,2.5,2.5,4.5,5,5.1l3,.8-3,.7c-2.5.6-4.5,2.6-5.1,5.1l-.7,2.9Z"/><path class="cls-1" d="M25.2,84.4l-.7-2.9c-.6-2.5-2.6-4.5-5.1-5.2l-3-.7,3.1-.8c2.5-.6,4.4-2.6,5-5.1l.7-2.9.7,2.9c.6,2.5,2.5,4.5,5,5.1l3,.8-3,.7c-2.5.6-4.5,2.6-5.1,5.1l-.7,2.9Z"/></svg>